<svg width="498" height="62" viewBox="0 0 498 62" fill="none" xmlns="http://www.w3.org/2000/svg">
<path fill-rule="evenodd" clip-rule="evenodd" d="M33.698 46.0902H36.3284C37.4659 46.0902 38.5323 44.9601 38.5323 43.507V18.0791C38.5323 16.6261 37.5369 15.496 36.3284 15.496H33.698C32.5605 15.496 31.4941 16.6261 31.4941 18.0791V43.507C31.4941 44.9601 32.4894 46.0902 33.698 46.0902Z" fill="#B6252B"/>
<path fill-rule="evenodd" clip-rule="evenodd" d="M117.598 44.3993C115.324 42.8656 113.617 40.8475 112.409 38.1836C111.129 35.6004 110.631 32.775 110.631 29.7076C110.631 26.6401 111.2 23.8955 112.409 21.2316C113.688 18.7292 115.324 16.6303 117.598 15.0966C119.802 13.5628 122.432 12.7556 125.276 12.7556C128.12 12.7556 130.679 13.5628 132.954 15.0966C135.158 16.5497 136.935 18.6485 138.073 21.2316C139.353 23.8147 139.922 26.6401 139.922 29.7076C139.922 32.8558 139.282 35.6811 138.073 38.1836C136.864 40.8475 135.158 42.8656 132.954 44.3993C130.679 45.9331 128.12 46.6595 125.276 46.6595C122.361 46.6595 119.802 46.0137 117.598 44.3993ZM129.4 38.4257C130.466 37.457 131.319 36.3269 131.817 34.7932C132.314 33.2594 132.599 31.5643 132.599 29.7076C132.599 26.8015 131.959 24.3798 130.75 22.5232C129.613 20.5858 127.694 19.6979 125.205 19.6979C123.499 19.6979 122.148 20.1014 121.011 20.9894C119.873 21.8774 119.02 23.0882 118.522 24.5413C118.096 26.075 117.811 27.7702 117.811 29.6269C117.811 31.5643 118.096 33.1787 118.522 34.7124C119.02 36.2462 119.873 37.457 121.011 38.345C122.148 39.3137 123.499 39.7173 125.205 39.7173C126.911 39.8788 128.333 39.3944 129.4 38.4257Z" fill="#B6252B"/>
<path fill-rule="evenodd" clip-rule="evenodd" d="M0 2.50243V5.08559C0 6.45789 0.995288 7.58802 2.20386 7.58802H4.83426H5.54518H16.7066C17.9152 7.58802 18.9105 6.53861 18.9105 5.08559V2.50243C18.9105 1.21086 17.9152 0 16.7066 0H2.20386C1.06638 0 0 1.13013 0 2.50243Z" fill="#B6252B"/>
<path fill-rule="evenodd" clip-rule="evenodd" d="M31.4941 2.50243V5.08559C31.4941 6.45789 32.4894 7.58802 33.698 7.58802H36.3284C37.4659 7.58802 38.5323 6.53861 38.5323 5.08559V2.50243C38.5323 1.21086 37.5369 0 36.3284 0H33.698C32.4894 0 31.4941 1.13013 31.4941 2.50243Z" fill="#B6252B"/>
<path fill-rule="evenodd" clip-rule="evenodd" d="M24.0935 15.5747H8.45331H7.38691H2.26831C1.05974 15.5747 0.0644531 16.7048 0.0644531 18.1579V43.5858C0.0644531 44.9581 1.05974 46.169 2.26831 46.169H5.18309C6.32056 46.169 7.38691 45.0389 7.38691 43.5858V34.1412V25.6651V23.1627H9.66187H13.9985H24.1647C25.3021 23.1627 26.3685 22.0326 26.3685 20.5795V18.0771C26.2975 16.7048 25.3021 15.5747 24.0935 15.5747Z" fill="#B6252B"/>
<path fill-rule="evenodd" clip-rule="evenodd" d="M104.577 19.8573C103.866 17.7584 102.729 16.0633 101.165 14.7717C99.6006 13.4801 97.6811 12.8344 95.335 12.8344C93.4866 12.8344 91.7806 13.3186 90.2167 14.2066C89.0788 14.8524 88.0839 15.6596 87.3016 16.8705C86.9467 17.3548 86.5912 17.9199 86.2356 18.5657C85.8089 17.5163 85.311 16.6283 84.7428 15.9018C84.1739 15.256 83.5338 14.6102 82.7523 14.2066C81.1877 13.3186 79.5527 12.8344 77.7044 12.8344C76.0694 12.8344 74.6478 13.2379 73.2966 13.9645C71.946 14.691 70.8796 15.9018 69.9554 17.597V15.9825C69.9554 14.691 68.9601 13.5608 67.8226 13.4801H65.4055C64.1969 13.4801 63.2017 14.6102 63.2017 15.9825L63.2728 43.5093C63.2728 44.8816 64.1969 46.0925 65.4766 46.0925H68.0359C69.2445 46.0925 70.3109 44.9624 70.3109 43.5093V28.1718C70.3109 26.7188 70.5241 25.3464 71.0217 24.1357C71.5194 22.9248 72.1594 21.9561 73.0832 21.2296C74.0077 20.503 75.0738 20.1802 76.2828 20.1802C79.4105 20.1802 80.9743 22.6019 80.9743 27.3646V43.5093C80.9743 44.8816 81.97 46.0925 83.2494 46.0925H85.8089C87.0171 46.0925 88.0128 44.9624 88.0128 43.5093V28.1718C88.0128 26.7188 88.2261 25.3464 88.7239 24.1357C89.2211 22.9248 89.9322 21.9561 90.8567 21.2296C91.7094 20.503 92.7762 20.1802 94.0556 20.1802C97.184 20.1802 98.7479 22.6826 98.7479 27.526V43.5093C98.7479 44.8816 99.6717 46.0925 100.952 46.0925H103.511C104.72 46.0925 105.786 44.9624 105.786 43.5093V26.4766C105.714 24.1357 105.359 21.8753 104.577 19.8573Z" fill="#B6252B"/>
<path fill-rule="evenodd" clip-rule="evenodd" d="M55.5178 39.5546C55.0913 39.4738 54.7358 39.3932 54.4515 39.2317C53.8827 38.9088 53.6695 38.263 53.6695 37.4558V2.50243C53.6695 1.21086 52.6741 0 51.4656 0H48.8352C47.6266 0 46.6313 1.13013 46.6313 2.50243V39.5546C46.6313 42.1378 47.2001 44.0751 48.2665 45.1245C49.2617 46.1739 50.7547 46.6582 52.6031 46.6582C53.6695 46.6582 54.8069 46.5776 56.0155 46.3354C57.0108 46.2547 57.7928 45.1245 57.7928 43.9137V42.057C57.7928 40.7655 56.8686 39.716 55.8022 39.5546C55.8022 39.5546 55.5889 39.5546 55.5178 39.5546Z" fill="#B6252B"/>
<path d="M175.952 24.9478C175.952 29.2262 175.17 33.0202 173.677 36.2491C172.185 39.3973 169.91 41.8998 166.923 43.6757C164.009 45.3709 160.454 46.2589 156.26 46.2589H144.387V3.7175H156.26C160.454 3.7175 164.009 4.52474 166.923 6.21993C169.91 7.99586 172.185 10.4176 173.677 13.6465C175.17 16.7947 175.952 20.5888 175.952 24.9478ZM155.905 41.3347C160.81 41.3347 164.577 39.8817 167.137 37.0563C169.696 34.1503 171.047 30.1141 171.047 24.9478C171.047 19.7815 169.767 15.7454 167.137 12.8393C164.577 9.93325 160.81 8.56095 155.905 8.56095H149.222V41.3347H155.905ZM209.365 27.8539C209.365 28.984 209.294 30.0334 209.153 30.8406H185.834C185.905 34.6347 186.83 37.46 188.678 39.3973C190.455 41.254 192.659 42.2227 195.218 42.2227C197.564 42.2227 199.555 41.5769 201.119 40.2046C202.683 38.8323 203.678 37.0563 204.034 34.7961H209.153C208.797 37.0563 208.015 39.1552 206.807 40.9311C205.598 42.7878 203.963 44.1601 202.043 45.2094C200.053 46.1781 197.849 46.6625 195.431 46.6625C192.659 46.6625 190.171 46.0167 187.967 44.6444C185.834 43.2721 184.128 41.3347 182.919 38.7516C181.711 36.1684 181.071 33.1816 181.071 29.7105C181.071 26.2394 181.711 23.2526 182.919 20.6694C184.128 18.0863 185.834 16.149 187.967 14.7767C190.171 13.4044 192.659 12.6778 195.431 12.6778C198.275 12.6778 200.764 13.4044 202.825 14.7767C204.958 16.149 206.593 17.9249 207.73 20.2658C208.797 22.5261 209.365 25.1093 209.365 27.8539ZM204.46 28.1768C204.603 25.755 204.247 23.737 203.394 22.0417C202.612 20.4273 201.474 19.1357 200.053 18.3285C198.631 17.5213 197.137 17.1983 195.431 17.1983C192.801 17.1983 190.526 18.0863 188.749 19.9429C186.9 21.8803 185.976 24.6249 185.834 28.1768H204.46ZM227.068 40.4468L236.096 13.0814H241.286L229.84 46.2589H224.082L212.707 13.0814H217.896L227.068 40.4468ZM272.922 27.8539C272.922 28.984 272.851 30.0334 272.708 30.8406H249.319C249.462 34.6347 250.386 37.46 252.163 39.3973C253.941 41.254 256.144 42.2227 258.774 42.2227C261.05 42.2227 263.04 41.5769 264.604 40.2046C266.169 38.8323 267.163 37.0563 267.519 34.7961H272.708C272.354 37.0563 271.5 39.1552 270.292 40.9311C269.083 42.7878 267.519 44.1601 265.528 45.2094C263.609 46.1781 261.405 46.6625 258.988 46.6625C256.144 46.6625 253.656 46.0167 251.523 44.6444C249.319 43.2721 247.613 41.3347 246.404 38.7516C245.196 36.1684 244.556 33.1816 244.556 29.7105C244.556 26.2394 245.196 23.2526 246.404 20.6694C247.613 18.0863 249.319 16.149 251.523 14.7767C253.656 13.4044 256.144 12.6778 258.988 12.6778C261.761 12.6778 264.249 13.4044 266.381 14.7767C268.514 16.149 270.079 17.9249 271.216 20.2658C272.354 22.5261 272.922 25.1093 272.922 27.8539ZM268.017 28.1768C268.088 25.755 267.732 23.737 266.95 22.0417C266.097 20.4273 265.031 19.1357 263.609 18.3285C262.187 17.5213 260.623 17.1983 258.988 17.1983C256.286 17.1983 254.082 18.0863 252.234 19.9429C250.457 21.8803 249.462 24.6249 249.319 28.1768H268.017ZM284.084 1.53796V46.2589H279.249V1.53796H284.084ZM305.055 12.6778C307.899 12.6778 310.388 13.4044 312.592 14.7767C314.795 16.149 316.573 18.0863 317.781 20.6694C319.061 23.2526 319.7 26.2394 319.7 29.7105C319.7 33.1816 319.061 36.1684 317.781 38.7516C316.573 41.3347 314.795 43.2721 312.592 44.6444C310.388 46.0167 307.899 46.6625 305.055 46.6625C302.283 46.6625 299.795 46.0167 297.52 44.6444C295.316 43.2721 293.61 41.3347 292.33 38.7516C291.05 36.1684 290.411 33.1816 290.411 29.7105C290.411 26.2394 291.05 23.2526 292.33 20.6694C293.61 18.0863 295.316 16.149 297.52 14.7767C299.795 13.4044 302.283 12.6778 305.055 12.6778ZM305.055 17.5213C303.349 17.5213 301.714 17.9249 300.293 18.8128C298.8 19.7007 297.591 21.0731 296.667 22.9297C295.814 24.7863 295.316 27.0467 295.316 29.7105C295.316 32.3744 295.814 34.6347 296.667 36.4913C297.591 38.2672 298.8 39.6395 300.293 40.5275C301.714 41.4155 303.349 41.8998 305.055 41.8998C306.833 41.8998 308.397 41.4155 309.89 40.5275C311.383 39.6395 312.52 38.2672 313.444 36.4913C314.369 34.6347 314.795 32.3744 314.795 29.7105C314.795 27.0467 314.369 24.7863 313.444 22.9297C312.52 21.0731 311.383 19.7007 309.89 18.8128C308.397 17.9249 306.833 17.5213 305.055 17.5213ZM342.165 12.6778C344.725 12.6778 347.071 13.4044 349.062 14.7767C351.123 16.149 352.687 18.0863 353.825 20.6694C354.962 23.2526 355.531 26.2394 355.531 29.7105C355.531 33.1816 354.962 36.1684 353.825 38.7516C352.687 41.3347 351.123 43.2721 349.062 44.6444C347.071 46.0167 344.725 46.6625 342.165 46.6625C339.322 46.6625 336.905 45.8552 334.914 44.2407C332.995 42.6263 331.644 40.4468 330.862 37.7829V62H326.028V13.0814H330.862V21.5574C331.644 18.8936 332.995 16.7947 334.914 15.0995C336.905 13.485 339.322 12.6778 342.165 12.6778ZM340.744 17.602C338.895 17.602 337.189 18.0863 335.696 19.055C334.132 20.0237 332.924 21.4767 332.07 23.3334C331.218 25.19 330.791 27.2888 330.791 29.7105C330.791 32.1323 331.218 34.2311 332.07 36.0877C332.924 37.9444 334.132 39.3167 335.696 40.366C337.189 41.3347 338.895 41.8998 340.744 41.8998C343.8 41.8998 346.218 40.7696 347.995 38.6708C349.773 36.4913 350.697 33.5046 350.697 29.7105C350.697 25.9165 349.773 22.9297 347.995 20.831C346.218 18.6514 343.8 17.602 340.744 17.602ZM397.831 12.5971C401.172 12.5971 403.945 13.808 406.006 16.3104C408.068 18.7321 409.134 22.3647 409.134 26.9659V46.2589H404.3V27.4503C404.3 24.2213 403.589 21.7189 402.168 20.0237C400.816 18.2478 398.826 17.4405 396.409 17.4405C393.85 17.4405 391.788 18.3285 390.295 20.2658C388.731 22.2032 387.949 25.0285 387.949 28.6611V46.2589H383.115V27.4503C383.115 24.2213 382.404 21.7189 380.982 20.0237C379.56 18.2478 377.641 17.4405 375.223 17.4405C372.664 17.4405 370.602 18.3285 369.038 20.2658C367.475 22.2032 366.763 25.0285 366.763 28.6611V46.2589H361.858V13.0814H366.763V20.6694C367.403 18.0056 368.683 16.0682 370.531 14.6152C372.379 13.2429 374.441 12.5971 376.858 12.5971C379.347 12.5971 381.48 13.2429 383.328 14.6959C385.105 16.149 386.456 18.2478 387.238 20.9924C388.02 18.3285 389.371 16.2296 391.29 14.7767C393.21 13.3236 395.414 12.5971 397.831 12.5971ZM443.472 27.8539C443.472 28.984 443.401 30.0334 443.259 30.8406H419.94C420.011 34.6347 421.007 37.46 422.784 39.3973C424.562 41.254 426.765 42.2227 429.324 42.2227C431.67 42.2227 433.661 41.5769 435.226 40.2046C436.789 38.8323 437.784 37.0563 438.14 34.7961H443.259C442.903 37.0563 442.121 39.1552 440.913 40.9311C439.704 42.7878 438.069 44.1601 436.149 45.2094C434.23 46.1781 432.026 46.6625 429.538 46.6625C426.765 46.6625 424.277 46.0167 422.073 44.6444C419.94 43.2721 418.234 41.3347 417.026 38.7516C415.817 36.1684 415.177 33.1816 415.177 29.7105C415.177 26.2394 415.817 23.2526 417.026 20.6694C418.234 18.0863 419.94 16.149 422.073 14.7767C424.277 13.4044 426.765 12.6778 429.538 12.6778C432.382 12.6778 434.87 13.4044 437.003 14.7767C439.064 16.149 440.699 17.9249 441.837 20.2658C442.903 22.5261 443.472 25.1093 443.472 27.8539ZM438.567 28.1768C438.709 25.755 438.353 23.737 437.5 22.0417C436.718 20.4273 435.58 19.1357 434.159 18.3285C432.737 17.5213 431.244 17.1983 429.538 17.1983C426.908 17.1983 424.633 18.0863 422.855 19.9429C421.078 21.8803 420.083 24.6249 419.94 28.1768H438.567ZM465.226 12.5971C468.567 12.5971 471.34 13.808 473.473 16.3104C475.535 18.7321 476.601 22.3647 476.601 26.9659V46.2589H471.767V27.4503C471.767 24.2213 470.984 21.6381 469.492 19.8623C467.998 18.0863 466.008 17.1983 463.449 17.1983C460.747 17.1983 458.686 18.167 457.051 20.1851C455.487 22.1225 454.633 24.9478 454.633 28.6611V46.2589H449.799V13.0814H454.633V20.9924C455.416 18.2478 456.695 16.2296 458.614 14.7767C460.534 13.3236 462.738 12.5971 465.226 12.5971ZM498 41.4155V46.2589H494.374C491.388 46.2589 489.113 45.4516 487.691 43.8372C486.199 42.2227 485.487 39.5588 485.487 35.7648V17.8441H481.08V13.0814H485.487V4.84763H490.393V13.0814H497.929V17.8441H490.393V35.8455C490.393 38.025 490.677 39.4781 491.388 40.2853C492.099 41.0118 493.307 41.4155 495.013 41.4155H498Z" fill="white"/>
</svg>
