<svg width="1983" height="244" viewBox="0 0 1983 244" fill="none" xmlns="http://www.w3.org/2000/svg">
<path fill-rule="evenodd" clip-rule="evenodd" d="M134.037 181.253H144.51C149.038 181.253 153.284 176.805 153.284 171.087V71.0085C153.284 65.2897 149.321 60.8418 144.51 60.8418H134.037C129.508 60.8418 125.263 65.2897 125.263 71.0085V171.087C125.263 176.805 129.225 181.253 134.037 181.253Z" fill="#B6252B"/>
<path fill-rule="evenodd" clip-rule="evenodd" d="M468.206 174.819C459.149 168.783 452.356 160.84 447.544 150.355C442.449 140.189 440.468 129.069 440.468 116.996C440.468 104.923 442.732 94.1211 447.544 83.6367C452.639 73.7878 459.149 65.5273 468.206 59.4909C476.981 53.4544 487.453 50.2773 498.775 50.2773C510.097 50.2773 520.286 53.4544 529.344 59.4909C538.118 65.2096 545.194 73.4701 549.723 83.6367C554.818 93.8034 557.082 104.923 557.082 116.996C557.082 129.387 554.535 140.507 549.723 150.355C544.911 160.84 538.118 168.783 529.344 174.819C520.286 180.855 510.097 183.715 498.775 183.715C487.17 183.715 476.981 181.173 468.206 174.819ZM515.191 151.309C519.437 147.496 522.834 143.048 524.815 137.012C526.796 130.975 527.928 124.303 527.928 116.996C527.928 105.559 525.381 96.0273 520.569 88.7201C516.041 81.0951 508.398 77.6003 498.492 77.6003C491.699 77.6003 486.321 79.1888 481.792 82.6836C477.264 86.1784 473.867 90.944 471.886 96.6628C470.187 102.699 469.055 109.371 469.055 116.678C469.055 124.303 470.187 130.658 471.886 136.694C473.867 142.73 477.264 147.496 481.792 150.991C486.321 154.803 491.699 156.392 498.492 156.392C505.285 157.027 510.946 155.121 515.191 151.309Z" fill="#B6252B"/>
<path fill-rule="evenodd" clip-rule="evenodd" d="M0 9.84896V20.0156C0 25.4167 3.96262 29.8646 8.77438 29.8646H19.247H22.0775H66.5155C71.3272 29.8646 75.2898 25.7344 75.2898 20.0156V9.84896C75.2898 4.76563 71.3272 0 66.5155 0H8.77438C4.24567 0 0 4.44792 0 9.84896Z" fill="#B6252B"/>
<path fill-rule="evenodd" clip-rule="evenodd" d="M125.263 9.84896V20.0156C125.263 25.4167 129.225 29.8646 134.037 29.8646H144.51C149.038 29.8646 153.284 25.7344 153.284 20.0156V9.84896C153.284 4.76563 149.321 0 144.51 0H134.037C129.225 0 125.263 4.44792 125.263 9.84896Z" fill="#B6252B"/>
<path fill-rule="evenodd" clip-rule="evenodd" d="M95.9337 61.4492H33.6639H29.4182H9.03903C4.22727 61.4492 0.264648 65.8971 0.264648 71.6159V171.694C0.264648 177.095 4.22727 181.861 9.03903 181.861H20.6439C25.1726 181.861 29.4182 177.413 29.4182 171.694V134.522V101.163V91.3138H38.4757H55.7414H96.2167C100.745 91.3138 104.991 86.8659 104.991 81.1471V71.2982C104.708 65.8971 100.745 61.4492 95.9337 61.4492Z" fill="#B6252B"/>
<path fill-rule="evenodd" clip-rule="evenodd" d="M416.358 77.9199C413.527 69.6595 408.999 62.9876 402.772 57.9043C396.545 52.821 388.903 50.2793 379.562 50.2793C372.203 50.2793 365.41 52.1855 359.183 55.6803C354.654 58.222 350.692 61.3991 347.578 66.1647C346.163 68.071 344.748 70.2949 343.332 72.8366C341.634 68.7064 339.653 65.2116 337.388 62.3522C335.124 59.8105 332.577 57.2689 329.463 55.6803C323.236 52.1855 316.726 50.2793 309.367 50.2793C302.857 50.2793 297.196 51.8678 291.818 54.7272C286.44 57.5866 282.195 62.3522 278.515 69.0241V62.6699C278.515 57.5866 274.553 53.1387 270.024 52.821H260.4C255.589 52.821 251.626 57.2689 251.626 62.6699L251.909 171.008C251.909 176.409 255.589 181.175 260.683 181.175H270.873C275.685 181.175 279.93 176.727 279.93 171.008V110.644C279.93 104.925 280.78 99.5241 282.761 94.7585C284.742 89.9928 287.29 86.1803 290.969 83.321C294.649 80.4616 298.894 79.1907 303.706 79.1907C316.16 79.1907 322.387 88.722 322.387 107.467V171.008C322.387 176.409 326.35 181.175 331.445 181.175H341.634C346.446 181.175 350.409 176.727 350.409 171.008V110.644C350.409 104.925 351.258 99.5241 353.239 94.7585C355.22 89.9928 358.051 86.1803 361.73 83.321C365.127 80.4616 369.372 79.1907 374.467 79.1907C386.921 79.1907 393.148 89.0397 393.148 108.102V171.008C393.148 176.409 396.828 181.175 401.923 181.175H412.112C416.924 181.175 421.17 176.727 421.17 171.008V103.972C420.887 94.7585 419.471 85.8626 416.358 77.9199Z" fill="#B6252B"/>
<path fill-rule="evenodd" clip-rule="evenodd" d="M220.921 155.677C219.222 155.359 217.807 155.042 216.675 154.406C214.411 153.135 213.561 150.594 213.561 147.417V9.84896C213.561 4.76562 209.599 0 204.787 0H194.314C189.503 0 185.54 4.44792 185.54 9.84896V155.677C185.54 165.844 187.804 173.469 192.05 177.599C196.013 181.729 201.957 183.635 209.316 183.635C213.561 183.635 218.09 183.318 222.902 182.365C226.865 182.047 229.978 177.599 229.978 172.833V165.526C229.978 160.443 226.298 156.312 222.053 155.677C222.053 155.677 221.204 155.677 220.921 155.677Z" fill="#B6252B"/>
<path d="M700.534 98.3307C700.534 115.169 697.421 130.102 691.477 142.81C685.533 155.201 676.475 165.049 664.587 172.039C652.983 178.711 638.83 182.206 622.131 182.206H574.862V14.7734H622.131C638.83 14.7734 652.983 17.9505 664.587 24.6224C676.475 31.612 685.533 41.1432 691.477 53.8516C697.421 66.2422 700.534 81.1745 700.534 98.3307ZM620.716 162.826C640.246 162.826 655.247 157.107 665.437 145.987C675.626 134.549 681.004 118.664 681.004 98.3307C681.004 77.9974 675.909 62.112 665.437 50.6745C655.247 39.237 640.246 33.8359 620.716 33.8359H594.109V162.826H620.716ZM833.565 109.768C833.565 114.216 833.282 118.346 832.716 121.523H739.877C740.16 136.456 743.84 147.576 751.199 155.201C758.275 162.508 767.05 166.32 777.239 166.32C786.58 166.32 794.505 163.779 800.732 158.378C806.959 152.977 810.921 145.987 812.337 137.091H832.716C831.301 145.987 828.187 154.247 823.375 161.237C818.564 168.544 812.054 173.945 804.411 178.076C796.486 181.888 787.712 183.794 778.088 183.794C767.05 183.794 757.143 181.253 748.369 175.852C739.877 170.451 733.084 162.826 728.272 152.659C723.461 142.492 720.913 130.737 720.913 117.076C720.913 103.414 723.461 91.6588 728.272 81.4922C733.084 71.3255 739.877 63.7005 748.369 58.2995C757.143 52.8984 767.05 50.0391 778.088 50.0391C789.41 50.0391 799.317 52.8984 807.525 58.2995C816.016 63.7005 822.526 70.6901 827.055 79.9036C831.301 88.7995 833.565 98.9661 833.565 109.768ZM814.035 111.039C814.601 101.508 813.186 93.5651 809.789 86.8932C806.676 80.5391 802.147 75.4557 796.486 72.2786C790.825 69.1016 784.881 67.8307 778.088 67.8307C767.616 67.8307 758.558 71.3255 751.482 78.6328C744.123 86.2578 740.443 97.0599 739.877 111.039H814.035ZM904.043 159.331L939.99 51.6276H960.652L915.082 182.206H892.155L846.868 51.6276H867.53L904.043 159.331ZM1086.61 109.768C1086.61 114.216 1086.32 118.346 1085.76 121.523H992.636C993.202 136.456 996.882 147.576 1003.96 155.201C1011.03 162.508 1019.81 166.32 1030.28 166.32C1039.34 166.32 1047.26 163.779 1053.49 158.378C1059.72 152.977 1063.68 145.987 1065.1 137.091H1085.76C1084.34 145.987 1080.95 154.247 1076.13 161.237C1071.32 168.544 1065.1 173.945 1057.17 178.076C1049.53 181.888 1040.75 183.794 1031.13 183.794C1019.81 183.794 1009.9 181.253 1001.41 175.852C992.636 170.451 985.843 162.826 981.031 152.659C976.219 142.492 973.672 130.737 973.672 117.076C973.672 103.414 976.219 91.6588 981.031 81.4922C985.843 71.3255 992.636 63.7005 1001.41 58.2995C1009.9 52.8984 1019.81 50.0391 1031.13 50.0391C1042.17 50.0391 1052.08 52.8984 1060.57 58.2995C1069.06 63.7005 1075.29 70.6901 1079.81 79.9036C1084.34 88.7995 1086.61 98.9661 1086.61 109.768ZM1067.08 111.039C1067.36 101.508 1065.94 93.5651 1062.83 86.8932C1059.43 80.5391 1055.19 75.4557 1049.53 72.2786C1043.87 69.1016 1037.64 67.8307 1031.13 67.8307C1020.37 67.8307 1011.6 71.3255 1004.24 78.6328C997.165 86.2578 993.202 97.0599 992.636 111.039H1067.08ZM1131.04 6.19531V182.206H1111.8V6.19531H1131.04ZM1214.54 50.0391C1225.86 50.0391 1235.77 52.8984 1244.55 58.2995C1253.32 63.7005 1260.4 71.3255 1265.21 81.4922C1270.3 91.6588 1272.85 103.414 1272.85 117.076C1272.85 130.737 1270.3 142.492 1265.21 152.659C1260.4 162.826 1253.32 170.451 1244.55 175.852C1235.77 181.253 1225.86 183.794 1214.54 183.794C1203.5 183.794 1193.6 181.253 1184.54 175.852C1175.77 170.451 1168.97 162.826 1163.88 152.659C1158.78 142.492 1156.24 130.737 1156.24 117.076C1156.24 103.414 1158.78 91.6588 1163.88 81.4922C1168.97 71.3255 1175.77 63.7005 1184.54 58.2995C1193.6 52.8984 1203.5 50.0391 1214.54 50.0391ZM1214.54 69.1016C1207.75 69.1016 1201.24 70.6901 1195.58 74.1849C1189.64 77.6797 1184.82 83.0807 1181.14 90.388C1177.75 97.6953 1175.77 106.591 1175.77 117.076C1175.77 127.56 1177.75 136.456 1181.14 143.763C1184.82 150.753 1189.64 156.154 1195.58 159.648C1201.24 163.143 1207.75 165.049 1214.54 165.049C1221.62 165.049 1227.85 163.143 1233.79 159.648C1239.73 156.154 1244.26 150.753 1247.94 143.763C1251.62 136.456 1253.32 127.56 1253.32 117.076C1253.32 106.591 1251.62 97.6953 1247.94 90.388C1244.26 83.0807 1239.73 77.6797 1233.79 74.1849C1227.85 70.6901 1221.62 69.1016 1214.54 69.1016ZM1362.29 50.0391C1372.48 50.0391 1381.82 52.8984 1389.75 58.2995C1397.96 63.7005 1404.18 71.3255 1408.71 81.4922C1413.24 91.6588 1415.5 103.414 1415.5 117.076C1415.5 130.737 1413.24 142.492 1408.71 152.659C1404.18 162.826 1397.96 170.451 1389.75 175.852C1381.82 181.253 1372.48 183.794 1362.29 183.794C1350.97 183.794 1341.35 180.617 1333.42 174.263C1325.78 167.909 1320.4 159.331 1317.29 148.846V244.159H1298.04V51.6276H1317.29V84.987C1320.4 74.5026 1325.78 66.2422 1333.42 59.5703C1341.35 53.2161 1350.97 50.0391 1362.29 50.0391ZM1356.63 69.4193C1349.27 69.4193 1342.48 71.3255 1336.54 75.138C1330.31 78.9505 1325.5 84.6693 1322.1 91.9766C1318.7 99.2838 1317.01 107.544 1317.01 117.076C1317.01 126.607 1318.7 134.867 1322.1 142.174C1325.5 149.482 1330.31 154.883 1336.54 159.013C1342.48 162.826 1349.27 165.049 1356.63 165.049C1368.8 165.049 1378.43 160.602 1385.5 152.341C1392.58 143.763 1396.26 132.008 1396.26 117.076C1396.26 102.143 1392.58 90.388 1385.5 82.1276C1378.43 73.5495 1368.8 69.4193 1356.63 69.4193ZM1583.92 49.7214C1597.22 49.7214 1608.26 54.487 1616.47 64.3359C1624.67 73.8672 1628.92 88.1641 1628.92 106.273V182.206H1609.67V108.18C1609.67 95.4713 1606.84 85.6224 1601.18 78.9505C1595.8 71.9609 1587.88 68.7839 1578.26 68.7839C1568.07 68.7839 1559.86 72.2786 1553.91 79.9036C1547.69 87.5286 1544.57 98.6484 1544.57 112.945V182.206H1525.33V108.18C1525.33 95.4713 1522.5 85.6224 1516.83 78.9505C1511.17 71.9609 1503.53 68.7839 1493.91 68.7839C1483.72 68.7839 1475.51 72.2786 1469.28 79.9036C1463.06 87.5286 1460.23 98.6484 1460.23 112.945V182.206H1440.7V51.6276H1460.23V81.4922C1462.77 71.0078 1467.87 63.3828 1475.23 57.6641C1482.59 52.263 1490.79 49.7214 1500.42 49.7214C1510.32 49.7214 1518.82 52.263 1526.18 57.9818C1533.25 63.7005 1538.63 71.9609 1541.74 82.763C1544.86 72.2786 1550.23 64.0182 1557.88 58.2995C1565.52 52.5807 1574.29 49.7214 1583.92 49.7214ZM1765.63 109.768C1765.63 114.216 1765.35 118.346 1764.78 121.523H1671.94C1672.23 136.456 1676.19 147.576 1683.26 155.201C1690.34 162.508 1699.12 166.32 1709.3 166.32C1718.65 166.32 1726.57 163.779 1732.8 158.378C1739.02 152.977 1742.99 145.987 1744.4 137.091H1764.78C1763.37 145.987 1760.25 154.247 1755.44 161.237C1750.63 168.544 1744.12 173.945 1736.48 178.076C1728.83 181.888 1720.06 183.794 1710.15 183.794C1699.12 183.794 1689.21 181.253 1680.43 175.852C1671.94 170.451 1665.15 162.826 1660.34 152.659C1655.53 142.492 1652.98 130.737 1652.98 117.076C1652.98 103.414 1655.53 91.6588 1660.34 81.4922C1665.15 71.3255 1671.94 63.7005 1680.43 58.2995C1689.21 52.8984 1699.12 50.0391 1710.15 50.0391C1721.48 50.0391 1731.38 52.8984 1739.87 58.2995C1748.08 63.7005 1754.59 70.6901 1759.12 79.9036C1763.37 88.7995 1765.63 98.9661 1765.63 109.768ZM1746.1 111.039C1746.67 101.508 1745.25 93.5651 1741.85 86.8932C1738.74 80.5391 1734.21 75.4557 1728.55 72.2786C1722.89 69.1016 1716.95 67.8307 1710.15 67.8307C1699.68 67.8307 1690.62 71.3255 1683.55 78.6328C1676.47 86.2578 1672.51 97.0599 1671.94 111.039H1746.1ZM1852.24 49.7214C1865.55 49.7214 1876.58 54.487 1885.08 64.3359C1893.28 73.8672 1897.53 88.1641 1897.53 106.273V182.206H1878.28V108.18C1878.28 95.4713 1875.17 85.3047 1869.23 78.3151C1863.28 71.3255 1855.36 67.8307 1845.17 67.8307C1834.41 67.8307 1826.2 71.6432 1819.69 79.5859C1813.47 87.2109 1810.07 98.3307 1810.07 112.945V182.206H1790.82V51.6276H1810.07V82.763C1813.18 71.9609 1818.28 64.0182 1825.92 58.2995C1833.56 52.5807 1842.34 49.7214 1852.24 49.7214ZM1982.73 163.143V182.206H1968.29C1956.4 182.206 1947.35 179.029 1941.68 172.674C1935.74 166.32 1932.91 155.836 1932.91 140.904V70.3724H1915.36V51.6276H1932.91V19.2214H1952.44V51.6276H1982.44V70.3724H1952.44V141.221C1952.44 149.799 1953.57 155.518 1956.4 158.695C1959.23 161.555 1964.04 163.143 1970.84 163.143H1982.73Z" fill="#808082"/>
</svg>
