<?xml version="1.0" encoding="UTF-8"?>
<!DOCTYPE svg PUBLIC "-//W3C//DTD SVG 1.1//EN" "http://www.w3.org/Graphics/SVG/1.1/DTD/svg11.dtd">
<!-- Creator: CorelDRAW X8 -->
<svg xmlns="http://www.w3.org/2000/svg" xml:space="preserve" width="7.00352in" height="0.767732in" version="1.1" style="shape-rendering:geometricPrecision; text-rendering:geometricPrecision; image-rendering:optimizeQuality; fill-rule:evenodd; clip-rule:evenodd"
viewBox="0 0 7004 768"
 xmlns:xlink="http://www.w3.org/1999/xlink">
 <defs>
  <style type="text/css">
   <![CDATA[
    .fil0 {fill:#B6252B}
    .fil1 {fill:#808082;fill-rule:nonzero}
   ]]>
  </style>
 </defs>
 <g id="Layer_x0020_1">
  <metadata id="CorelCorpID_0Corel-Layer"/>
  <g id="_3105016700480">
   <g>
    <path class="fil0" d="M473 571l37 0c16,0 31,-14 31,-32l0 -315c0,-18 -14,-32 -31,-32l-37 0c-16,0 -31,14 -31,32l0 315c0,18 14,32 31,32z"/>
    <g>
     <path class="fil0" d="M1653 550c-32,-19 -56,-44 -73,-77 -18,-32 -25,-67 -25,-105 0,-38 8,-72 25,-105 18,-31 41,-57 73,-76 31,-19 68,-29 108,-29 40,0 76,10 108,29 31,18 56,44 72,76 18,32 26,67 26,105 0,39 -9,74 -26,105 -17,33 -41,58 -72,77 -32,19 -68,28 -108,28 -41,0 -77,-8 -108,-28l0 0zm166 -74c15,-12 27,-26 34,-45 7,-19 11,-40 11,-63 0,-36 -9,-66 -26,-89 -16,-24 -43,-35 -78,-35 -24,0 -43,5 -59,16 -16,11 -28,26 -35,44 -6,19 -10,40 -10,63 0,24 4,44 10,63 7,19 19,34 35,45 16,12 35,17 59,17 24,2 44,-4 59,-16z"/>
    </g>
    <path class="fil0" d="M0 31l0 32c0,17 14,31 31,31l37 0 10 0 157 0c17,0 31,-13 31,-31l0 -32c0,-16 -14,-31 -31,-31l-204 0c-16,0 -31,14 -31,31z"/>
    <path class="fil0" d="M442 31l0 32c0,17 14,31 31,31l37 0c16,0 31,-13 31,-31l0 -32c0,-16 -14,-31 -31,-31l-37 0c-17,0 -31,14 -31,31z"/>
    <path class="fil0" d="M338 193l-220 0 -15 0 -72 0c-17,0 -31,14 -31,32l0 315c0,17 14,32 31,32l41 0c16,0 31,-14 31,-32l0 -117 0 -105 0 -31 32 0 61 0 143 0c16,0 31,-14 31,-32l0 -31c-1,-17 -15,-31 -32,-31z"/>
    <path class="fil0" d="M1470 246c-10,-26 -26,-47 -48,-63 -22,-16 -49,-24 -82,-24 -26,0 -50,6 -72,17 -16,8 -30,18 -41,33 -5,6 -10,13 -15,21 -6,-13 -13,-24 -21,-33 -8,-8 -17,-16 -28,-21 -22,-11 -45,-17 -71,-17 -23,0 -43,5 -62,14 -19,9 -34,24 -47,45l0 -20c0,-16 -14,-30 -30,-31l-34 0c-17,0 -31,14 -31,31l1 341c0,17 13,32 31,32l36 0c17,0 32,-14 32,-32l0 -190c0,-18 3,-35 10,-50 7,-15 16,-27 29,-36 13,-9 28,-13 45,-13 44,0 66,30 66,89l0 200c0,17 14,32 32,32l36 0c17,0 31,-14 31,-32l0 -190c0,-18 3,-35 10,-50 7,-15 17,-27 30,-36 12,-9 27,-13 45,-13 44,0 66,31 66,91l0 198c0,17 13,32 31,32l36 0c17,0 32,-14 32,-32l0 -211c-1,-29 -6,-57 -17,-82z"/>
    <path class="fil0" d="M780 490c-6,-1 -11,-2 -15,-4 -8,-4 -11,-12 -11,-22l0 -433c0,-16 -14,-31 -31,-31l-37 0c-17,0 -31,14 -31,31l0 459c0,32 8,56 23,69 14,13 35,19 61,19 15,0 31,-1 48,-4 14,-1 25,-15 25,-30l0 -23c0,-16 -13,-29 -28,-31 0,0 -3,0 -4,0z"/>
   </g>
   <path class="fil1" d="M2474 309c0,53 -11,100 -32,140 -21,39 -53,70 -95,92 -41,21 -91,32 -150,32l-167 0 0 -527 167 0c59,0 109,10 150,31 42,22 74,52 95,92 21,39 32,86 32,140zm-282 203c69,0 122,-18 158,-53 36,-36 55,-86 55,-150 0,-64 -18,-114 -55,-150 -36,-36 -89,-53 -158,-53l-94 0 0 406 94 0zm752 -167c0,14 -1,27 -3,37l-328 0c1,47 14,82 40,106 25,23 56,35 92,35 33,0 61,-8 83,-25 22,-17 36,-39 41,-67l72 0c-5,28 -16,54 -33,76 -17,23 -40,40 -67,53 -28,12 -59,18 -93,18 -39,0 -74,-8 -105,-25 -30,-17 -54,-41 -71,-73 -17,-32 -26,-69 -26,-112 0,-43 9,-80 26,-112 17,-32 41,-56 71,-73 31,-17 66,-26 105,-26 40,0 75,9 104,26 30,17 53,39 69,68 15,28 23,60 23,94zm-69 4c2,-30 -3,-55 -15,-76 -11,-20 -27,-36 -47,-46 -20,-10 -41,-14 -65,-14 -37,0 -69,11 -94,34 -26,24 -39,58 -41,102l262 0zm318 152l127 -339 73 0 -161 411 -81 0 -160 -411 73 0 129 339zm645 -156c0,14 -1,27 -3,37l-329 0c2,47 15,82 40,106 25,23 56,35 93,35 32,0 60,-8 82,-25 22,-17 36,-39 41,-67l73 0c-5,28 -17,54 -34,76 -17,23 -39,40 -67,53 -27,12 -58,18 -92,18 -40,0 -75,-8 -105,-25 -31,-17 -55,-41 -72,-73 -17,-32 -26,-69 -26,-112 0,-43 9,-80 26,-112 17,-32 41,-56 72,-73 30,-17 65,-26 105,-26 39,0 74,9 104,26 30,17 52,39 68,68 16,28 24,60 24,94zm-69 4c1,-30 -4,-55 -15,-76 -12,-20 -27,-36 -47,-46 -20,-10 -42,-14 -65,-14 -38,0 -69,11 -95,34 -25,24 -39,58 -41,102l263 0zm226 -330l0 554 -68 0 0 -554 68 0zm295 138c40,0 75,9 106,26 31,17 56,41 73,73 18,32 27,69 27,112 0,43 -9,80 -27,112 -17,32 -42,56 -73,73 -31,17 -66,25 -106,25 -39,0 -74,-8 -106,-25 -31,-17 -55,-41 -73,-73 -18,-32 -27,-69 -27,-112 0,-43 9,-80 27,-112 18,-32 42,-56 73,-73 32,-17 67,-26 106,-26zm0 60c-24,0 -47,5 -67,16 -21,11 -38,28 -51,51 -12,23 -19,51 -19,84 0,33 7,61 19,84 13,22 30,39 51,50 20,11 43,17 67,17 25,0 47,-6 68,-17 21,-11 37,-28 50,-50 13,-23 19,-51 19,-84 0,-33 -6,-61 -19,-84 -13,-23 -29,-40 -50,-51 -21,-11 -43,-16 -68,-16zm522 -60c36,0 69,9 97,26 29,17 51,41 67,73 16,32 24,69 24,112 0,43 -8,80 -24,112 -16,32 -38,56 -67,73 -28,17 -61,25 -97,25 -40,0 -74,-10 -102,-30 -27,-20 -46,-47 -57,-80l0 300 -68 0 0 -606 68 0 0 105c11,-33 30,-59 57,-80 28,-20 62,-30 102,-30zm-20 61c-26,0 -50,6 -71,18 -22,12 -39,30 -51,53 -12,23 -18,49 -18,79 0,30 6,56 18,79 12,23 29,40 51,53 21,12 45,19 71,19 43,0 77,-14 102,-40 25,-27 38,-64 38,-111 0,-47 -13,-84 -38,-110 -25,-27 -59,-40 -102,-40zm803 -62c47,0 86,15 115,46 29,30 44,75 44,132l0 239 -68 0 0 -233c0,-40 -10,-71 -30,-92 -19,-22 -47,-32 -81,-32 -36,0 -65,11 -86,35 -22,24 -33,59 -33,104l0 218 -68 0 0 -233c0,-40 -10,-71 -30,-92 -20,-22 -47,-32 -81,-32 -36,0 -65,11 -87,35 -22,24 -32,59 -32,104l0 218 -69 0 0 -411 69 0 0 94c9,-33 27,-57 53,-75 26,-17 55,-25 89,-25 35,0 65,8 91,26 25,18 44,44 55,78 11,-33 30,-59 57,-77 27,-18 58,-27 92,-27zm642 189c0,14 -1,27 -3,37l-328 0c1,47 15,82 40,106 25,23 56,35 92,35 33,0 61,-8 83,-25 22,-17 36,-39 41,-67l72 0c-5,28 -16,54 -33,76 -17,23 -40,40 -67,53 -27,12 -58,18 -93,18 -39,0 -74,-8 -105,-25 -30,-17 -54,-41 -71,-73 -17,-32 -26,-69 -26,-112 0,-43 9,-80 26,-112 17,-32 41,-56 71,-73 31,-17 66,-26 105,-26 40,0 75,9 105,26 29,17 52,39 68,68 15,28 23,60 23,94zm-69 4c2,-30 -3,-55 -15,-76 -11,-20 -27,-36 -47,-46 -20,-10 -41,-14 -65,-14 -37,0 -69,11 -94,34 -25,24 -39,58 -41,102l262 0zm375 -193c47,0 86,15 116,46 29,30 44,75 44,132l0 239 -68 0 0 -233c0,-40 -11,-72 -32,-94 -21,-22 -49,-33 -85,-33 -38,0 -67,12 -90,37 -22,24 -34,59 -34,105l0 218 -68 0 0 -411 68 0 0 98c11,-34 29,-59 56,-77 27,-18 58,-27 93,-27zm461 357l0 60 -51 0c-42,0 -74,-10 -94,-30 -21,-20 -31,-53 -31,-100l0 -222 -62 0 0 -59 62 0 0 -102 69 0 0 102 106 0 0 59 -106 0 0 223c0,27 4,45 14,55 10,9 27,14 51,14l42 0z"/>
  </g>
 </g>
</svg>
