<svg width="10935" height="1318" viewBox="0 0 10935 1318" fill="none" xmlns="http://www.w3.org/2000/svg">
<path fill-rule="evenodd" clip-rule="evenodd" d="M739.936 979.803H797.694C822.671 979.803 846.087 955.779 846.087 924.889V384.336C846.087 353.448 824.23 329.424 797.694 329.424H739.936C714.959 329.424 691.543 353.448 691.543 384.336V924.889C691.543 955.779 713.398 979.803 739.936 979.803Z" fill="#B6252B"/>
<path fill-rule="evenodd" clip-rule="evenodd" d="M2582.2 943.856C2532.26 911.252 2494.78 868.351 2468.26 811.721C2440.15 756.806 2429.22 696.743 2429.22 631.536C2429.22 566.326 2441.71 507.981 2468.26 451.351C2496.34 398.154 2532.26 353.535 2582.2 320.932C2630.59 288.326 2688.34 271.166 2750.79 271.166C2813.24 271.166 2869.43 288.326 2919.38 320.932C2967.78 351.822 3006.8 396.439 3031.78 451.351C3059.89 506.263 3072.38 566.326 3072.38 631.536C3072.38 698.461 3058.33 758.522 3031.78 811.721C3005.24 868.351 2967.78 911.252 2919.38 943.856C2869.43 976.461 2813.24 991.903 2750.79 991.903C2686.78 991.903 2630.59 978.175 2582.2 943.856ZM2841.34 816.867C2864.75 796.274 2883.48 772.251 2894.42 739.647C2905.33 707.041 2911.59 671.006 2911.59 631.536C2911.59 569.757 2897.53 518.276 2870.99 478.808C2846.02 437.622 2803.88 418.747 2749.23 418.747C2711.77 418.747 2682.11 427.325 2657.14 446.202C2632.15 465.079 2613.42 490.819 2602.49 521.709C2593.13 554.313 2586.87 590.35 2586.87 629.82C2586.87 671.006 2593.13 705.325 2602.49 737.929C2613.42 770.535 2632.15 796.274 2657.14 815.152C2682.11 835.745 2711.77 844.324 2749.23 844.324C2786.69 847.758 2817.91 837.46 2841.34 816.867Z" fill="#B6252B"/>
<path fill-rule="evenodd" clip-rule="evenodd" d="M0 53.1973V108.111C0 137.283 21.8544 161.308 48.392 161.308H106.15H121.76H366.841C393.379 161.308 415.234 138.999 415.234 108.111V53.1973C415.234 25.7408 393.379 0 366.841 0H48.392C23.4154 0 0 24.0246 0 53.1973Z" fill="#B6252B"/>
<path fill-rule="evenodd" clip-rule="evenodd" d="M691.543 53.1973V108.111C691.543 137.283 713.398 161.308 739.936 161.308H797.694C822.671 161.308 846.087 138.999 846.087 108.111V53.1973C846.087 25.7408 824.23 0 797.694 0H739.936C713.398 0 691.543 24.0246 691.543 53.1973Z" fill="#B6252B"/>
<path fill-rule="evenodd" clip-rule="evenodd" d="M529.039 331.076H185.614H162.198H49.805C23.2674 331.076 1.41309 355.1 1.41309 385.99V926.543C1.41309 955.716 23.2674 981.457 49.805 981.457H113.807C138.784 981.457 162.198 957.433 162.198 926.543V725.767V545.58V492.384H212.152H307.375H530.603C555.577 492.384 578.993 468.36 578.993 437.469V384.273C577.434 355.1 555.577 331.076 529.039 331.076Z" fill="#B6252B"/>
<path fill-rule="evenodd" clip-rule="evenodd" d="M2296.29 422.125C2280.68 377.506 2255.71 341.471 2221.37 314.014C2187.02 286.557 2144.87 272.83 2093.36 272.83C2052.77 272.83 2015.31 283.123 1980.97 302.001C1955.98 315.729 1934.14 332.889 1916.96 358.63C1909.17 368.926 1901.36 380.939 1893.55 394.667C1884.18 372.359 1873.25 353.482 1860.78 338.038C1848.28 324.309 1834.23 310.58 1817.07 302.001C1782.71 283.123 1746.81 272.83 1706.23 272.83C1670.33 272.83 1639.11 281.408 1609.44 296.854C1579.79 312.298 1556.37 338.038 1536.08 374.075V339.753C1536.08 312.298 1514.22 288.272 1489.24 286.557H1436.17C1409.63 286.557 1387.78 310.58 1387.78 339.753L1389.34 924.925C1389.34 954.097 1409.63 979.839 1437.73 979.839H1493.93C1520.47 979.839 1543.88 955.815 1543.88 924.925V598.876C1543.88 567.988 1548.56 538.813 1559.49 513.076C1570.42 487.334 1584.47 466.741 1604.76 451.297C1625.06 435.851 1648.47 428.989 1675.01 428.989C1743.69 428.989 1778.03 480.47 1778.03 581.717V924.925C1778.03 954.097 1799.89 979.839 1827.98 979.839H1884.18C1910.71 979.839 1932.58 955.815 1932.58 924.925V598.876C1932.58 567.988 1937.26 538.813 1948.19 513.076C1959.11 487.334 1974.72 466.741 1995.02 451.297C2013.75 435.851 2037.17 428.989 2065.26 428.989C2133.96 428.989 2168.3 482.185 2168.3 585.148V924.925C2168.3 954.097 2188.58 979.839 2216.69 979.839H2272.88C2299.43 979.839 2322.84 955.815 2322.84 924.925V562.839C2321.26 513.076 2313.46 465.024 2296.29 422.125Z" fill="#B6252B"/>
<path fill-rule="evenodd" clip-rule="evenodd" d="M1219.05 840.861C1209.68 839.144 1201.88 837.43 1195.63 833.997C1183.14 827.133 1178.46 813.404 1178.46 796.245V53.1973C1178.46 25.7408 1156.6 0 1130.07 0H1072.31C1045.77 0 1023.92 24.0246 1023.92 53.1973V840.861C1023.92 895.776 1036.41 936.959 1059.82 959.268C1081.68 981.576 1114.46 991.872 1155.05 991.872C1178.46 991.872 1203.44 990.158 1229.97 985.009C1251.83 983.294 1269 959.268 1269 933.528V894.058C1269 866.603 1248.71 844.293 1225.29 840.861C1225.29 840.861 1220.61 840.861 1219.05 840.861Z" fill="#B6252B"/>
<path d="M3863.52 530.336C3863.52 621.287 3846.35 701.941 3813.57 770.582C3780.81 837.507 3730.85 890.706 3665.26 928.458C3601.28 964.495 3523.22 983.372 3431.13 983.372H3170.42V79.0168H3431.13C3523.22 79.0168 3601.28 96.1773 3665.26 132.214C3730.85 169.967 3780.81 221.449 3813.57 290.09C3846.35 357.015 3863.52 437.671 3863.52 530.336ZM3423.33 878.693C3531.03 878.693 3613.75 847.804 3669.96 787.741C3726.15 725.965 3755.82 640.162 3755.82 530.336C3755.82 420.509 3727.71 334.709 3669.96 272.93C3613.75 211.153 3531.03 181.98 3423.33 181.98H3276.59V878.693H3423.33ZM4597.2 592.114C4597.2 616.138 4595.64 638.447 4592.54 655.606H4080.51C4082.07 736.262 4102.38 796.323 4142.96 837.507C4181.97 876.977 4230.37 897.57 4286.56 897.57C4338.07 897.57 4381.79 883.841 4416.13 854.669C4450.48 825.496 4472.32 787.741 4480.14 739.693H4592.54C4584.73 787.741 4567.55 832.36 4541.03 870.113C4514.48 909.583 4478.58 938.756 4436.42 961.062C4392.73 981.655 4344.33 991.952 4291.24 991.952C4230.37 991.952 4175.74 978.224 4127.34 949.051C4080.51 919.878 4043.05 878.693 4016.5 823.78C3989.98 768.866 3975.92 705.372 3975.92 631.582C3975.92 557.793 3989.98 494.299 4016.5 439.384C4043.05 384.472 4080.51 343.289 4127.34 314.116C4175.74 284.943 4230.37 269.497 4291.24 269.497C4353.69 269.497 4408.34 284.943 4453.59 314.116C4500.43 343.289 4536.33 381.041 4561.3 430.805C4584.73 478.855 4597.2 533.769 4597.2 592.114ZM4489.49 598.979C4492.63 547.495 4484.82 504.596 4466.09 468.557C4448.92 434.238 4423.93 406.781 4392.73 389.621C4361.5 372.461 4328.7 365.595 4291.24 365.595C4233.49 365.595 4183.53 384.472 4144.51 423.94C4103.91 465.126 4083.63 523.471 4080.51 598.979H4489.49ZM4985.92 859.817L5184.15 278.077H5298.11L5046.78 983.372H4920.35L4670.58 278.077H4784.52L4985.92 859.817ZM5992.77 592.114C5992.77 616.138 5991.21 638.447 5988.07 655.606H5474.5C5477.64 736.262 5497.93 796.323 5536.95 837.507C5575.99 876.977 5624.36 897.57 5682.11 897.57C5732.09 897.57 5775.78 883.841 5810.13 854.669C5844.49 825.496 5866.32 787.741 5874.13 739.693H5988.07C5980.3 787.741 5961.55 832.36 5935.02 870.113C5908.48 909.583 5874.13 938.756 5830.42 961.062C5788.28 981.655 5739.88 991.952 5686.81 991.952C5624.36 991.952 5569.73 978.224 5522.9 949.051C5474.5 919.878 5437.04 878.693 5410.49 823.78C5383.97 768.866 5369.92 705.372 5369.92 631.582C5369.92 557.793 5383.97 494.299 5410.49 439.384C5437.04 384.472 5474.5 343.289 5522.9 314.116C5569.73 284.943 5624.36 269.497 5686.81 269.497C5747.7 269.497 5802.33 284.943 5849.15 314.116C5895.98 343.289 5930.35 381.041 5955.31 430.805C5980.3 478.855 5992.77 533.769 5992.77 592.114ZM5885.07 598.979C5886.63 547.495 5878.81 504.596 5861.64 468.557C5842.91 434.238 5819.5 406.781 5788.28 389.621C5757.06 372.461 5722.71 365.595 5686.81 365.595C5627.48 365.595 5579.09 384.472 5538.51 423.94C5499.49 465.126 5477.64 523.471 5474.5 598.979H5885.07ZM6237.87 32.6836V983.372H6131.7V32.6836H6237.87ZM6698.34 269.497C6760.79 269.497 6815.44 284.943 6863.84 314.116C6912.21 343.289 6951.25 384.472 6977.78 439.384C7005.89 494.299 7019.92 557.793 7019.92 631.582C7019.92 705.372 7005.89 768.866 6977.78 823.78C6951.25 878.693 6912.21 919.878 6863.84 949.051C6815.44 978.224 6760.79 991.952 6698.34 991.952C6637.48 991.952 6582.85 978.224 6532.89 949.051C6484.5 919.878 6447.04 878.693 6418.93 823.78C6390.82 768.866 6376.79 705.372 6376.79 631.582C6376.79 557.793 6390.82 494.299 6418.93 439.384C6447.04 384.472 6484.5 343.289 6532.89 314.116C6582.85 284.943 6637.48 269.497 6698.34 269.497ZM6698.34 372.461C6660.88 372.461 6624.98 381.041 6593.78 399.916C6561 418.792 6534.45 447.966 6514.16 487.435C6495.43 526.903 6484.5 574.955 6484.5 631.582C6484.5 688.212 6495.43 736.262 6514.16 775.73C6534.45 813.483 6561 842.656 6593.78 861.533C6624.98 880.41 6660.88 890.706 6698.34 890.706C6737.38 890.706 6771.73 880.41 6804.51 861.533C6837.29 842.656 6862.26 813.483 6882.55 775.73C6902.86 736.262 6912.21 688.212 6912.21 631.582C6912.21 574.955 6902.86 526.903 6882.55 487.435C6862.26 447.966 6837.29 418.792 6804.51 399.916C6771.73 381.041 6737.38 372.461 6698.34 372.461ZM7513.2 269.497C7569.41 269.497 7620.92 284.943 7664.64 314.116C7709.9 343.289 7744.24 384.472 7769.23 439.384C7794.19 494.299 7806.69 557.793 7806.69 631.582C7806.69 705.372 7794.19 768.866 7769.23 823.78C7744.24 878.693 7709.9 919.878 7664.64 949.051C7620.92 978.224 7569.41 991.952 7513.2 991.952C7450.77 991.952 7397.7 974.79 7353.98 940.469C7311.85 906.15 7282.18 859.817 7265.01 803.188V1318H7158.87V278.077H7265.01V458.262C7282.18 401.634 7311.85 357.015 7353.98 320.978C7397.7 286.657 7450.77 269.497 7513.2 269.497ZM7482 374.177C7441.4 374.177 7403.94 384.472 7371.15 405.065C7336.81 425.658 7310.29 456.546 7291.53 496.016C7272.83 535.485 7263.45 580.101 7263.45 631.582C7263.45 683.066 7272.83 727.682 7291.53 767.151C7310.29 806.621 7336.81 835.793 7371.15 858.1C7403.94 878.693 7441.4 890.706 7482 890.706C7549.1 890.706 7602.19 866.679 7641.21 822.063C7680.25 775.73 7700.54 712.238 7700.54 631.582C7700.54 550.929 7680.25 487.434 7641.21 442.82C7602.19 396.485 7549.1 374.177 7482 374.177ZM8735.5 267.782C8808.87 267.782 8869.75 293.523 8915.01 346.72C8960.29 398.201 8983.69 475.424 8983.69 573.237V983.372H8877.55V583.535C8877.55 514.892 8861.94 461.695 8830.74 425.658C8801.05 387.906 8757.35 370.744 8704.28 370.744C8648.09 370.744 8602.81 389.621 8570.03 430.805C8535.69 471.99 8518.52 532.051 8518.52 609.274V983.372H8412.37V583.535C8412.37 514.892 8396.76 461.695 8365.54 425.658C8334.31 387.906 8292.18 370.744 8239.08 370.744C8182.89 370.744 8137.61 389.621 8103.27 430.805C8068.95 471.99 8053.32 532.051 8053.32 609.274V983.372H7945.61V278.077H8053.32V439.384C8067.37 382.757 8095.48 341.571 8136.06 310.683C8176.63 281.51 8221.91 267.782 8274.98 267.782C8329.64 267.782 8376.47 281.51 8417.05 312.398C8456.07 343.289 8485.73 387.905 8502.91 446.251C8520.08 389.621 8549.74 345.002 8591.88 314.116C8634.04 283.226 8682.43 267.782 8735.5 267.782ZM9737.68 592.114C9737.68 616.138 9736.12 638.447 9733.01 655.606H9220.97C9222.53 736.262 9244.4 796.323 9283.42 837.507C9322.46 876.977 9370.83 897.57 9427.02 897.57C9478.54 897.57 9522.25 883.841 9556.62 854.669C9590.94 825.496 9612.79 787.741 9620.6 739.693H9733.01C9725.19 787.741 9708.02 832.36 9681.49 870.113C9654.94 909.583 9619.04 938.756 9576.88 961.062C9534.75 981.655 9486.35 991.952 9431.72 991.952C9370.83 991.952 9316.2 978.224 9267.81 949.051C9220.97 919.878 9183.51 878.693 9156.99 823.78C9130.44 768.866 9116.39 705.372 9116.39 631.582C9116.39 557.793 9130.44 494.299 9156.99 439.384C9183.51 384.472 9220.97 343.289 9267.81 314.116C9316.2 284.943 9370.83 269.497 9431.72 269.497C9494.17 269.497 9548.8 284.943 9595.64 314.116C9640.89 343.289 9676.79 381.041 9701.78 430.805C9725.19 478.855 9737.68 533.769 9737.68 592.114ZM9629.98 598.979C9633.1 547.495 9625.28 504.596 9606.55 468.557C9589.38 434.238 9564.39 406.781 9533.19 389.621C9501.96 372.461 9469.18 365.595 9431.72 365.595C9373.97 365.595 9324.02 384.472 9284.98 423.94C9245.96 465.126 9224.11 523.471 9220.97 598.979H9629.98ZM10215.4 267.782C10288.7 267.782 10349.6 293.523 10396.4 346.72C10441.7 398.201 10465.1 475.424 10465.1 573.237V983.372H10359V583.535C10359 514.892 10341.8 459.977 10309 422.227C10276.2 384.472 10232.5 365.595 10176.3 365.595C10117 365.595 10071.7 386.188 10035.8 429.089C10001.5 470.275 9982.75 530.336 9982.75 609.274V983.372H9876.61V278.077H9982.75V446.251C9999.95 387.905 10028 345.002 10070.2 314.116C10112.3 283.226 10160.7 267.782 10215.4 267.782ZM10935 880.41V983.372H10855.4C10789.8 983.372 10739.9 966.211 10708.6 931.891C10675.9 897.57 10660.2 840.94 10660.2 760.286V379.324H10563.5V278.077H10660.2V103.041H10768V278.077H10933.4V379.324H10768V762.002C10768 808.334 10774.2 839.224 10789.8 856.384C10805.4 871.828 10832 880.41 10869.4 880.41H10935Z" fill="white"/>
</svg>
